# xmcd CD database file
#
# Track frame offsets:
#	150
#	19486
#	36657
#	55551
#	80133
#	100956
#	124143
#	144585
#	167241
#	187860
#
# Disc length: 2781 seconds
#
# Revision: 0
# Processed by: cddbd v1.4PL0 Copyright (c) Steve Scherf et al.
# Submitted via: CDex 1.50beta10
#
DISCID=8c0adb0a
DTITLE=Hamilton Loomis - Kickin It
DYEAR=2003
DGENRE=Blues
TTITLE0=Workin' Real Hard
TTITLE1=No No No
TTITLE2=Be Mine Anyway
TTITLE3=Just Your Fool
TTITLE4=Get My Blues On
TTITLE5=Better Man
TTITLE6=99 Miles
TTITLE7=Take A Number (Stand In Line)
TTITLE8=Something's Gonna Come My Way
TTITLE9=Who Dat?
EXTD=YEAR: 2003
EXTT0=
EXTT1=
EXTT2=
EXTT3=
EXTT4=
EXTT5=
EXTT6=
EXTT7=
EXTT8=
EXTT9=
PLAYORDER=
